<?xml version="1.0" encoding="utf-8"?>
<!-- Svg Vector Icons : http://www.onlinewebfonts.com/icon -->
<!DOCTYPE svg PUBLIC "-//W3C//DTD SVG 1.1//EN" "http://www.w3.org/Graphics/SVG/1.1/DTD/svg11.dtd">
<svg version="1.1" xmlns="http://www.w3.org/2000/svg" xmlns:xlink="http://www.w3.org/1999/xlink" x="0px" y="0px" viewBox="0 0 1000 1000" enable-background="new 0 0 1000 1000" xml:space="preserve">
<metadata> Svg Vector Icons : http://www.onlinewebfonts.com/icon </metadata>
<g><g><path d="M694.9,907.2c-10.5-4.8-22.3-6.3-33.7-4.8c-3.7,0.5-16.2,7.1-22.7,9.4c-0.5-1-1.5-2.6-2.7-5.7c-9.9-23.5-32.1-28.1-50.5-21.8c77.9-263.5,99-649.9-91.4-870.1c-6-6.9-18.6-4.9-22.7,2.9c-142.2,269.4-177,593.4-61.9,878.9c-18.1,2.7-34.3,14.9-38.7,35.1c-6.4-10.1-17.3-18.5-26.7-22.7c-16-7.2-35-5.9-50,3.2c-28.6,17.5-32.2,67.4,3.8,78.2c4.4,1.3,7.7-4.5,4.4-7.6c-18.7-18.4-19.4-49.6,9.5-58.6c12.2-3.8,24.3-0.7,34,7.2c7.8,6.4,11.2,15.2,17.2,22.6c-10.1,0.2-20.6,0.8-30.1,4.2c-5.1,1.8-4.1,8.8,1.3,9.3c10.8,1,21.7,0,32.5,0.8c9.8,0.7,19.8,4.1,29.3,1.5c5.2-1.4,5.6-8.2,1.4-11c-5.1-3.5-11.4-4.3-17.8-4.6c0.7-0.8,1.3-1.8,1.2-3c-1-39.4,47.1-57.4,65.1-17.1c3.6,8,14.5,4.5,17-2.2c14.5-39.9,79-61.6,84.4-3.7c-7.7,0-15.2,0.5-21.7,1.4c-6.9,1-4.2,10.4,1.5,11.1c12.4,1.5,24.8,2.8,37,5.8c11,2.7,21.6,8.1,32.7,9.8c8.9,1.3,13.8-9.1,6.2-14.6c-8.3-6-19.2-9.2-30.6-11.3c1.1-18.6,16.1-45.1,39.4-22.5c4.4,4.3,4.3,12.8,7.3,17.4c3.5,5.3,4.2,8.8,10.8,10.7c9,2.6,15-3.5,22.8-6.8c36.9-15.4,51.8,14.6,55,45.1c0.8,7.9,12.8,13.8,17,4.6C736.6,951.7,721.3,919.2,694.9,907.2z M493.4,191.2c0.3-0.1,0.6-0.1,0.8-0.1c-1.1,33.7-2.3,72.6-3.5,113.5C491.3,266.8,492.2,229,493.4,191.2z M555.9,887.2c-0.4,1.7-0.4,3.2-0.3,4.7c-8.3-11.5-20.9-19.9-36.3-22.2c-30.3-4.5-54.7,15.2-67.7,40.4c-6.3-6.4-13.7-10.4-21.3-12.7c-39.5-130.2-65.4-262.6-60.8-399.4c2.5-74.3,12.8-148.5,30.7-220.6c7.1-28.5,34.6-147.4,60.2-192.1c-10.8,215.2-0.4,430.2,18.3,644.7c1.3,15.1,23.3,15.6,23.8,0c7-212.2,14.4-424.4,21.1-636.7c57.8,77.5,77.2,307.1,80.4,350.4C615.2,594.4,593.4,741.7,555.9,887.2z"/></g><g></g><g></g><g></g><g></g><g></g><g></g><g></g><g></g><g></g><g></g><g></g><g></g><g></g><g></g><g></g></g>
</svg>